<svg xmlns="http://www.w3.org/2000/svg" width="200" height="200" viewBox="0 0 200 200" fill="none"><circle cx="100" cy="100" r="95" fill="#D9D9D9" stroke="#A9A4A3" stroke-width="10"></circle><path d="M100.1 73.3125L83.0091 85.5625C80.1664 87.5938 79.6191 91.25 81.7731 93.8594C84.0508 96.6406 88.4825 97.1875 91.537 95.0781L109.07 83.0156C110.306 82.1719 112.071 82.3594 113.042 83.4531C114.013 84.5469 113.784 86.1094 112.548 86.9688L108.858 89.5L133.4 109.5V80H133.276L132.588 79.6094L119.769 72.3438C117.068 70.8125 113.908 70 110.694 70C106.845 70 103.102 71.1719 100.1 73.3125ZM104.126 92.75L94.9977 99.0313C89.4359 102.875 81.367 101.875 77.2002 96.8125C73.2805 92.0469 74.2692 85.3906 79.4425 81.6875L94.1325 71.1719C92.0844 70.4062 89.8773 70.0156 87.635 70.0156C84.3156 70 81.0845 70.875 78.3125 72.5L65.6 80V115H70.5791L86.7169 128.031C90.1775 130.828 95.5273 130.609 98.6878 127.547C99.6589 126.594 100.312 125.484 100.648 124.328L103.649 126.766C107.092 129.562 112.46 129.359 115.62 126.312C116.415 125.547 116.997 124.656 117.368 123.734C120.793 125.766 125.455 125.344 128.333 122.562C131.493 119.516 131.264 114.766 127.821 111.969L104.126 92.75ZM45.825 80C44.2712 80 43 81.125 43 82.5V115C43 117.766 45.5248 120 48.65 120H54.3C57.4252 120 59.95 117.766 59.95 115V80H45.825ZM51.475 110C52.2242 110 52.9428 110.263 53.4726 110.732C54.0024 111.201 54.3 111.837 54.3 112.5C54.3 113.163 54.0024 113.799 53.4726 114.268C52.9428 114.737 52.2242 115 51.475 115C50.7258 115 50.0072 114.737 49.4774 114.268C48.9476 113.799 48.65 113.163 48.65 112.5C48.65 111.837 48.9476 111.201 49.4774 110.732C50.0072 110.263 50.7258 110 51.475 110ZM139.05 80V115C139.05 117.766 141.575 120 144.7 120H150.35C153.475 120 156 117.766 156 115V82.5C156 81.125 154.729 80 153.175 80H139.05ZM144.7 112.5C144.7 111.837 144.998 111.201 145.527 110.732C146.057 110.263 146.776 110 147.525 110C148.274 110 148.993 110.263 149.523 110.732C150.052 111.201 150.35 111.837 150.35 112.5C150.35 113.163 150.052 113.799 149.523 114.268C148.993 114.737 148.274 115 147.525 115C146.776 115 146.057 114.737 145.527 114.268C144.998 113.799 144.7 113.163 144.7 112.5Z" fill="black"></path></svg>