<svg width="200" height="200" viewBox="0 0 200 200" fill="none" xmlns="http://www.w3.org/2000/svg">
<circle cx="100" cy="100" r="95" fill="#D9D9D9" stroke="#A9A4A3" stroke-width="10"/>
<path d="M74.9999 87.5V58.3334H125V87.5M74.9999 125H66.6666C64.4564 125 62.3368 124.122 60.774 122.559C59.2112 120.996 58.3333 118.877 58.3333 116.667V95.8334C58.3333 93.6232 59.2112 91.5036 60.774 89.9408C62.3368 88.378 64.4564 87.5 66.6666 87.5H133.333C135.543 87.5 137.663 88.378 139.226 89.9408C140.789 91.5036 141.667 93.6232 141.667 95.8334V116.667C141.667 118.877 140.789 120.996 139.226 122.559C137.663 124.122 135.543 125 133.333 125H125M74.9999 108.333H125V141.667H74.9999V108.333Z" stroke="#1E1E1E" stroke-width="4" stroke-linecap="round" stroke-linejoin="round"/>
</svg>
