<svg width="200" height="200" viewBox="0 0 200 200" fill="none" xmlns="http://www.w3.org/2000/svg">
<circle cx="100" cy="100" r="95" fill="#D9D9D9" stroke="#A9A4A3" stroke-width="10"/>
<path d="M141.667 100C141.667 123.012 123.012 141.667 99.9999 141.667M141.667 100C141.667 76.9882 123.012 58.3334 99.9999 58.3334M141.667 100H58.3333M99.9999 141.667C76.9881 141.667 58.3333 123.012 58.3333 100M99.9999 141.667C110.422 130.257 116.345 115.45 116.667 100C116.345 84.5502 110.422 69.7432 99.9999 58.3334M99.9999 141.667C89.5779 130.257 83.6551 115.45 83.3333 100C83.6551 84.5502 89.5779 69.7432 99.9999 58.3334M58.3333 100C58.3333 76.9882 76.9881 58.3334 99.9999 58.3334" stroke="#1E1E1E" stroke-width="4" stroke-linecap="round" stroke-linejoin="round"/>
</svg>
